<svg width="20" height="21" viewBox="0 0 20 21" fill="none" xmlns="http://www.w3.org/2000/svg">
<g id="icon">
<g id="Black">
<path id="Vector" d="M1.47268 4.91406C1.22658 4.97656 1.03518 5.09766 0.847675 5.30469C0.625019 5.55078 0.531269 5.81641 0.535175 6.17578C0.542988 6.72266 0.253925 6.40234 5.39064 11.5352L10 16.1445L14.6094 11.5352C19.7461 6.40234 19.4571 6.72266 19.4649 6.17578C19.4688 5.80859 19.375 5.54687 19.1367 5.28906C18.8828 5.01172 18.6328 4.90234 18.2422 4.89844C17.668 4.89062 17.9961 4.60156 13.7774 8.81641L10 12.5898L6.2383 8.83203C3.18361 5.77734 2.44533 5.05859 2.29689 4.99219C2.08205 4.89844 1.68752 4.86328 1.47268 4.91406Z" fill="#FBFBFB"/>
</g>
</g>
</svg>
